<svg xmlns="http://www.w3.org/2000/svg" xmlns:xlink="http://www.w3.org/1999/xlink" width="100px" zoomAndPan="magnify" viewBox="0 100 375 374.999991" height="100px" preserveAspectRatio="xMidYMid meet" version="1.0"><defs><g/><clipPath id="8bd3653bad"><path d="M 0 175.144531 L 375 175.144531 L 375 199.855469 L 0 199.855469 Z M 0 175.144531 " clip-rule="nonzero"/></clipPath></defs><rect x="-37.5" width="450" fill="#ffffff" y="-37.499999" height="449.999989" fill-opacity="1"/><rect x="-37.5" width="450" fill="#ffffff" y="-37.499999" height="449.999989" fill-opacity="1"/><g fill="#000000" fill-opacity="1"><g transform="translate(69.421875, 225.107827)"><g><path d="M 70.0625 -10.78125 L 88.328125 -77 L 95.484375 -77 L 72.9375 0 L 66.21875 0 L 49.609375 -65.5625 L 31.453125 0 L 24.640625 0 L 4.953125 -77 L 11.875 -77 L 28.59375 -11.109375 L 46.75 -77 L 52.90625 -77 Z M 70.0625 -10.78125 "/></g></g></g><g fill="#000000" fill-opacity="1"><g transform="translate(170.944673, 225.107827)"><g><path d="M 39.59375 -77.4375 C 61.226562 -77.4375 72.046875 -64.382812 72.046875 -38.28125 C 72.046875 -26.320312 68.960938 -16.878906 62.796875 -9.953125 C 56.640625 -3.023438 48.90625 0.4375 39.59375 0.4375 C 29.695312 0.4375 22.035156 -2.273438 16.609375 -7.703125 C 10.304688 -14.148438 7.15625 -23.863281 7.15625 -36.84375 C 7.15625 -49.820312 10.25 -59.832031 16.4375 -66.875 C 22.632812 -73.914062 30.351562 -77.4375 39.59375 -77.4375 Z M 22 -12.984375 C 26.03125 -8.429688 31.894531 -6.15625 39.59375 -6.15625 C 46.851562 -6.15625 52.828125 -9.035156 57.515625 -14.796875 C 62.210938 -20.554688 64.5625 -28.820312 64.5625 -39.59375 C 64.5625 -50.375 62.109375 -58.476562 57.203125 -63.90625 C 53.097656 -68.53125 47.226562 -70.84375 39.59375 -70.84375 C 32.40625 -70.84375 26.445312 -67.941406 21.71875 -62.140625 C 16.988281 -56.347656 14.625 -48.046875 14.625 -37.234375 C 14.625 -26.421875 17.082031 -18.335938 22 -12.984375 Z M 22 -12.984375 "/></g></g></g><g fill="#000000" fill-opacity="1"><g transform="translate(250.139053, 225.107827)"><g><path d="M 48.296875 -70.40625 L 16.28125 -70.40625 L 16.28125 -41.46875 L 45.984375 -41.46875 L 45.4375 -34.875 L 16.28125 -34.875 L 16.28125 -6.59375 L 51.046875 -6.59375 L 50.484375 0 L 8.796875 0 L 8.796875 -77 L 48.84375 -77 Z M 48.296875 -70.40625 "/></g></g></g><g clip-path="url(#8bd3653bad)"><path fill="#ffffff" d="M 0 175.144531 L 375 175.144531 L 375 199.855469 L 0 199.855469 Z M 0 175.144531 " fill-opacity="1" fill-rule="nonzero"/></g><g fill="#000000" fill-opacity="1"><g transform="translate(50.946885, 191.27555)"><g><path d="M 4.71875 -3.660156 L 6.070312 0.0429688 L 6.851562 0.0429688 L 9.445312 -7.773438 L 8.277344 -7.773438 C 7.707031 -6.023438 7.027344 -3.980469 6.421875 -2.144531 L 5.167969 -5.726562 L 4.277344 -5.726562 L 3.011719 -2.132812 L 1.144531 -7.773438 L -0.0117188 -7.773438 L 2.605469 0.0429688 L 3.386719 0.0429688 C 3.78125 -1.121094 4.277344 -2.40625 4.71875 -3.660156 Z M 4.71875 -3.660156 "/></g></g></g><g fill="#000000" fill-opacity="1"><g transform="translate(69.134264, 191.27555)"><g><path d="M 0.386719 -3.847656 C 0.386719 -1.628906 2.15625 0.144531 4.375 0.144531 C 6.597656 0.144531 8.378906 -1.628906 8.378906 -3.847656 C 8.378906 -6.070312 6.597656 -7.851562 4.375 -7.851562 C 2.15625 -7.851562 0.386719 -6.070312 0.386719 -3.847656 Z M 1.527344 -3.847656 C 1.527344 -5.429688 2.792969 -6.707031 4.375 -6.707031 C 5.960938 -6.707031 7.234375 -5.429688 7.234375 -3.847656 C 7.234375 -2.265625 5.960938 -1 4.375 -1 C 2.792969 -1 1.527344 -2.265625 1.527344 -3.847656 Z M 1.527344 -3.847656 "/></g></g></g><g fill="#000000" fill-opacity="1"><g transform="translate(86.77204, 191.27555)"><g><path d="M 3.75 -3.902344 L 2.453125 -3.902344 L 2.453125 -3.375 L 5.253906 0 L 6.695312 0 L 4.265625 -2.890625 C 5.585938 -3.121094 6.257812 -4.15625 6.257812 -5.246094 C 6.257812 -6.464844 5.421875 -7.796875 3.75 -7.796875 L 0.945312 -7.796875 L 0.945312 0 L 2.046875 0 L 2.046875 -6.675781 L 3.75 -6.675781 C 4.683594 -6.675781 5.144531 -5.90625 5.144531 -5.246094 C 5.144531 -4.574219 4.683594 -3.902344 3.75 -3.902344 Z M 3.75 -3.902344 "/></g></g></g><g fill="#000000" fill-opacity="1"><g transform="translate(102.123423, 191.27555)"><g><path d="M 4.792969 -5.707031 L 5.894531 -5.75 C 5.695312 -7.15625 4.464844 -7.773438 3.277344 -7.773438 C 2.386719 -7.773438 1.460938 -7.421875 0.945312 -6.75 C 0.660156 -6.378906 0.515625 -5.9375 0.515625 -5.476562 C 0.515625 -5.421875 0.527344 -5.355469 0.527344 -5.289062 L 0.527344 -5.300781 C 0.648438 -3.695312 2.054688 -3.429688 3.253906 -3.308594 C 4.023438 -3.234375 4.816406 -3.132812 4.949219 -2.550781 C 4.96875 -2.453125 4.980469 -2.363281 4.980469 -2.285156 C 4.980469 -1.496094 4.078125 -1.035156 3.253906 -1.035156 C 2.539062 -1.035156 1.671875 -1.40625 1.59375 -2.121094 L 1.59375 -2.078125 L 1.582031 -2.242188 L 0.460938 -2.222656 L 0.472656 -2.011719 C 0.617188 -0.636719 2.054688 0.0664062 3.242188 0.0664062 C 4.628906 0.0664062 6.101562 -0.792969 6.101562 -2.277344 C 6.101562 -2.429688 6.082031 -2.617188 6.046875 -2.78125 C 5.75 -4.011719 4.441406 -4.289062 3.386719 -4.421875 C 2.527344 -4.496094 1.636719 -4.605469 1.636719 -5.496094 C 1.636719 -5.71875 1.691406 -5.9375 1.824219 -6.101562 C 2.144531 -6.507812 2.726562 -6.683594 3.253906 -6.683594 C 3.914062 -6.683594 4.640625 -6.386719 4.792969 -5.707031 Z M 4.792969 -5.707031 "/></g></g></g><g fill="#000000" fill-opacity="1"><g transform="translate(117.463821, 191.27555)"><g><path d="M 5.3125 -4.640625 L 2.054688 -4.640625 L 2.054688 -7.761719 L 0.945312 -7.761719 L 0.945312 0 L 2.054688 0 L 2.054688 -3.539062 L 5.3125 -3.539062 L 5.3125 0 L 6.433594 0 L 6.433594 -7.761719 L 5.3125 -7.761719 Z M 5.3125 -4.640625 "/></g></g></g><g fill="#000000" fill-opacity="1"><g transform="translate(133.639626, 191.27555)"><g><path d="M 3.484375 -6.738281 L 4.914062 -6.738281 L 4.914062 -7.761719 L 0.945312 -7.761719 L 0.945312 -6.738281 L 2.375 -6.738281 L 2.375 -1.035156 L 0.945312 -1.035156 L 0.945312 0 L 4.914062 0 L 4.914062 -1.035156 L 3.484375 -1.035156 Z M 3.484375 -6.738281 "/></g></g></g><g fill="#000000" fill-opacity="1"><g transform="translate(148.287507, 191.27555)"><g><path d="M 3.761719 -7.695312 L 0.945312 -7.695312 L 0.945312 0 L 2.066406 0 L 2.066406 -2.5625 L 3.761719 -2.5625 C 5.421875 -2.5625 6.257812 -3.835938 6.257812 -5.125 C 6.257812 -6.410156 5.421875 -7.695312 3.761719 -7.695312 Z M 3.761719 -3.660156 L 2.066406 -3.660156 L 2.066406 -6.574219 L 3.761719 -6.574219 C 4.695312 -6.574219 5.15625 -5.847656 5.15625 -5.113281 C 5.15625 -4.386719 4.695312 -3.660156 3.761719 -3.660156 Z M 3.761719 -3.660156 "/></g></g></g><g fill="#000000" fill-opacity="1"><g transform="translate(163.616913, 191.27555)"><g><path d="M 0.0976562 0.714844 L 1.175781 0.714844 L 4.332031 -8.554688 L 3.265625 -8.554688 Z M 0.0976562 0.714844 "/></g></g></g><g fill="#000000" fill-opacity="1"><g transform="translate(177.022681, 191.27555)"><g><path d="M 5.640625 -1.109375 L 2.066406 -1.109375 L 2.066406 -3.375 L 5.550781 -3.375 L 5.550781 -4.496094 L 2.066406 -4.496094 L 2.066406 -6.664062 L 5.628906 -6.664062 L 5.628906 -7.773438 L 0.945312 -7.773438 L 0.945312 0 L 5.640625 0 Z M 5.640625 -1.109375 "/></g></g></g><g fill="#000000" fill-opacity="1"><g transform="translate(191.956374, 191.27555)"><g><path d="M 7.046875 -7.773438 L 5.859375 -7.773438 L 3.519531 -1.933594 L 1.199219 -7.773438 L -0.0117188 -7.773438 L 3.113281 0.0234375 L 3.925781 0.0234375 Z M 7.046875 -7.773438 "/></g></g></g><g fill="#000000" fill-opacity="1"><g transform="translate(207.714475, 191.27555)"><g><path d="M 5.640625 -1.109375 L 2.066406 -1.109375 L 2.066406 -3.375 L 5.550781 -3.375 L 5.550781 -4.496094 L 2.066406 -4.496094 L 2.066406 -6.664062 L 5.628906 -6.664062 L 5.628906 -7.773438 L 0.945312 -7.773438 L 0.945312 0 L 5.640625 0 Z M 5.640625 -1.109375 "/></g></g></g><g fill="#000000" fill-opacity="1"><g transform="translate(222.648167, 191.27555)"><g><path d="M 3.75 -3.902344 L 2.453125 -3.902344 L 2.453125 -3.375 L 5.253906 0 L 6.695312 0 L 4.265625 -2.890625 C 5.585938 -3.121094 6.257812 -4.15625 6.257812 -5.246094 C 6.257812 -6.464844 5.421875 -7.796875 3.75 -7.796875 L 0.945312 -7.796875 L 0.945312 0 L 2.046875 0 L 2.046875 -6.675781 L 3.75 -6.675781 C 4.683594 -6.675781 5.144531 -5.90625 5.144531 -5.246094 C 5.144531 -4.574219 4.683594 -3.902344 3.75 -3.902344 Z M 3.75 -3.902344 "/></g></g></g><g fill="#000000" fill-opacity="1"><g transform="translate(237.999546, 191.27555)"><g><path d="M 3.308594 -4.308594 L 1.144531 -7.839844 L -0.164062 -7.839844 L 2.75 -3.132812 L 2.75 0 L 3.871094 0 L 3.871094 -3.132812 L 6.816406 -7.839844 L 5.496094 -7.839844 Z M 3.308594 -4.308594 "/></g></g></g><g fill="#000000" fill-opacity="1"><g transform="translate(253.427874, 191.27555)"><g><path d="M 2.398438 -6.71875 L 2.398438 0 L 3.507812 0 L 3.507812 -6.71875 L 5.828125 -6.71875 L 5.828125 -7.773438 L 0.0664062 -7.773438 L 0.0664062 -6.71875 Z M 2.398438 -6.71875 "/></g></g></g><g fill="#000000" fill-opacity="1"><g transform="translate(268.130716, 191.27555)"><g><path d="M 5.3125 -4.640625 L 2.054688 -4.640625 L 2.054688 -7.761719 L 0.945312 -7.761719 L 0.945312 0 L 2.054688 0 L 2.054688 -3.539062 L 5.3125 -3.539062 L 5.3125 0 L 6.433594 0 L 6.433594 -7.761719 L 5.3125 -7.761719 Z M 5.3125 -4.640625 "/></g></g></g><g fill="#000000" fill-opacity="1"><g transform="translate(284.306526, 191.27555)"><g><path d="M 3.484375 -6.738281 L 4.914062 -6.738281 L 4.914062 -7.761719 L 0.945312 -7.761719 L 0.945312 -6.738281 L 2.375 -6.738281 L 2.375 -1.035156 L 0.945312 -1.035156 L 0.945312 0 L 4.914062 0 L 4.914062 -1.035156 L 3.484375 -1.035156 Z M 3.484375 -6.738281 "/></g></g></g><g fill="#000000" fill-opacity="1"><g transform="translate(298.954414, 191.27555)"><g><path d="M 0.945312 -7.695312 L 0.945312 0 L 2.054688 0 L 2.054688 -5.375 L 5.773438 0 L 6.652344 0 L 6.652344 -7.695312 L 5.550781 -7.695312 L 5.550781 -2.277344 L 1.804688 -7.695312 Z M 0.945312 -7.695312 "/></g></g></g><g fill="#000000" fill-opacity="1"><g transform="translate(315.350065, 191.27555)"><g><path d="M 6.851562 -4.992188 L 8.058594 -4.992188 C 7.640625 -7.082031 5.828125 -7.816406 4.320312 -7.816406 C 2.15625 -7.816406 0.460938 -6.15625 0.460938 -3.835938 C 0.460938 -1.527344 2.121094 0.132812 4.320312 0.132812 C 5.75 0.132812 7.355469 -0.914062 7.894531 -2.40625 L 7.894531 -2.398438 C 8.003906 -2.660156 8.058594 -3.101562 8.113281 -3.761719 L 3.882812 -3.761719 L 3.882812 -2.628906 L 6.785156 -2.628906 C 6.320312 -1.484375 5.289062 -0.957031 4.320312 -0.957031 C 2.78125 -0.957031 1.59375 -2.175781 1.59375 -3.835938 C 1.59375 -5.488281 2.78125 -6.683594 4.320312 -6.683594 C 5.320312 -6.683594 6.53125 -6.257812 6.851562 -4.992188 Z M 6.851562 -4.992188 "/></g></g></g></svg>